<svg xmlns="http://www.w3.org/2000/svg" width="800" height="400"><rect width="800" height="400" fill="#f8f9fa" rx="10" ry="10"/><rect width="200" height="200" x="50" y="100" fill="#d1e7dd" stroke="#198754" stroke-width="2" rx="10" ry="10"/><text x="150" y="140" fill="#0f5132" font-family="Arial" font-size="20" text-anchor="middle">Client</text><rect width="160" height="30" x="70" y="160" fill="#fff" stroke="#198754" stroke-width="1" rx="5" ry="5"/><text x="150" y="180" font-family="Arial" font-size="14" text-anchor="middle">User Input</text><rect width="160" height="30" x="70" y="200" fill="#fff" stroke="#198754" stroke-width="1" rx="5" ry="5"/><text x="150" y="220" font-family="Arial" font-size="14" text-anchor="middle">Socket Connection</text><rect width="160" height="30" x="70" y="240" fill="#fff" stroke="#198754" stroke-width="1" rx="5" ry="5"/><text x="150" y="260" font-family="Arial" font-size="14" text-anchor="middle">Display Results</text><rect width="200" height="200" x="550" y="100" fill="#cfe2ff" stroke="#0d6efd" stroke-width="2" rx="10" ry="10"/><text x="650" y="140" fill="#084298" font-family="Arial" font-size="20" text-anchor="middle">Server</text><rect width="160" height="30" x="570" y="160" fill="#fff" stroke="#0d6efd" stroke-width="1" rx="5" ry="5"/><text x="650" y="180" font-family="Arial" font-size="14" text-anchor="middle">Socket Binding</text><rect width="160" height="30" x="570" y="200" fill="#fff" stroke="#0d6efd" stroke-width="1" rx="5" ry="5"/><text x="650" y="220" font-family="Arial" font-size="14" text-anchor="middle">CRC Calculation</text><rect width="160" height="30" x="570" y="240" fill="#fff" stroke="#0d6efd" stroke-width="1" rx="5" ry="5"/><text x="650" y="260" font-family="Arial" font-size="14" text-anchor="middle">Send Results</text><rect width="100" height="60" x="350" y="170" fill="#f8d7da" stroke="#dc3545" stroke-width="2" rx="5" ry="5"/><text x="400" y="195" fill="#842029" font-family="Arial" font-size="16" text-anchor="middle">Unix</text><text x="400" y="215" fill="#842029" font-family="Arial" font-size="16" text-anchor="middle">Socket</text><line x1="250" x2="350" y1="180" y2="180" stroke="#198754" stroke-width="2" marker-end="url(#arrowhead)"/><text x="300" y="170" font-family="Arial" font-size="12" text-anchor="middle">Data Word, Divisor</text><line x1="450" x2="550" y1="180" y2="180" stroke="#0d6efd" stroke-width="2" marker-end="url(#arrowhead)"/><line x1="550" x2="450" y1="220" y2="220" stroke="#0d6efd" stroke-width="2" marker-end="url(#arrowhead)"/><text x="500" y="240" font-family="Arial" font-size="12" text-anchor="middle">Codeword, Remainder</text><line x1="350" x2="250" y1="220" y2="220" stroke="#198754" stroke-width="2" marker-end="url(#arrowhead)"/><defs><marker id="arrowhead" markerHeight="7" markerWidth="10" orient="auto" refX="9" refY="3.5"><polygon fill="#000" points="0 0 10 3.5 0 7"/></marker></defs><text x="400" y="50" font-family="Arial" font-size="24" font-weight="bold" text-anchor="middle">CRC Client-Server Architecture</text><text x="400" y="80" font-family="Arial" font-size="16" text-anchor="middle">Using Unix File Sockets</text><rect width="20" height="20" x="50" y="330" fill="#d1e7dd" stroke="#198754" stroke-width="1"/><text x="80" y="345" font-family="Arial" font-size="14" text-anchor="start">Client Process</text><rect width="20" height="20" x="200" y="330" fill="#cfe2ff" stroke="#0d6efd" stroke-width="1"/><text x="230" y="345" font-family="Arial" font-size="14" text-anchor="start">Server Process</text><rect width="20" height="20" x="350" y="330" fill="#f8d7da" stroke="#dc3545" stroke-width="1"/><text x="380" y="345" font-family="Arial" font-size="14" text-anchor="start">Unix Socket File</text></svg>